<!DOCTYPE svg PUBLIC "-//W3C//DTD SVG 1.1//EN" "http://www.w3.org/Graphics/SVG/1.1/DTD/svg11.dtd">
<!-- Uploaded to: SVG Repo, www.svgrepo.com, Transformed by: SVG Repo Mixer Tools -->
<svg fill="#ff6600" width="800px" height="800px" viewBox="0 0 512 512" version="1.1" xml:space="preserve" xmlns="http://www.w3.org/2000/svg" xmlns:xlink="http://www.w3.org/1999/xlink" stroke="#ff6600">
<g id="SVGRepo_bgCarrier" stroke-width="0"/>
<g id="SVGRepo_tracerCarrier" stroke-linecap="round" stroke-linejoin="round"/>
<g id="SVGRepo_iconCarrier"> <g id="_x35_76_x2C__Health_x2C__healthcare_x2C__medical"> <g> <g> <g> <g> <path d="M256.347,485.956c-2.556,0-5.112-0.974-7.064-2.922c-10.047-10.027-20.264-20.116-30.145-29.874 C119.994,355.25,26.347,262.769,26.347,160.304c0-31.725,12.416-64.874,34.064-90.946 c23.239-27.988,53.181-43.402,84.309-43.402c55.662,0,87.35,37.124,111.626,81.097c24.271-43.973,55.927-81.097,111.449-81.097 c31.203,0,61.198,15.412,84.462,43.398c21.665,26.062,34.09,59.212,34.09,90.95c0,102.219-93.313,194.47-192.105,292.137 c-10.104,9.989-20.553,20.319-30.825,30.587C261.465,484.98,258.905,485.956,256.347,485.956z M144.72,45.957 c-55.401,0-98.373,61.469-98.373,114.348c0,94.107,90.758,183.735,186.845,278.625c7.592,7.498,15.381,15.19,23.15,22.909 c7.998-7.959,16.021-15.892,23.84-23.621c95.737-94.647,186.166-184.045,186.166-277.914 c0-52.879-43.05-114.348-98.552-114.348c-48.854,0-76.312,34.824-102.508,87.111c-1.695,3.384-5.156,5.521-8.941,5.521 s-7.245-2.137-8.941-5.521C221.209,80.78,193.722,45.957,144.72,45.957z"/> </g> <g> <path d="M356.348,245.957c-3.344,0-6.466-1.671-8.32-4.453l-31.68-47.519l-31.68,47.519c-1.854,2.782-4.977,4.453-8.32,4.453 s-6.466-1.671-8.32-4.453l-31.68-47.519l-31.68,47.519c-1.854,2.782-4.977,4.453-8.32,4.453s-6.466-1.671-8.32-4.453 l-31.68-47.519l-31.68,47.519c-1.854,2.782-4.977,4.453-8.32,4.453s-6.466-1.671-8.32-4.453l-17.032-25.547H26.347 c-5.523,0-10-4.477-10-10s4.477-10,10-10h70c3.344,0,6.466,1.671,8.32,4.453l11.68,17.519l31.68-47.519 c1.854-2.782,4.977-4.453,8.32-4.453s6.466,1.671,8.32,4.453l31.68,47.519l31.68-47.519c1.854-2.782,4.977-4.453,8.32-4.453 s6.466,1.671,8.32,4.453l31.68,47.52l31.68-47.52c1.854-2.782,4.977-4.453,8.32-4.453s6.466,1.671,8.32,4.453l31.68,47.519 l31.68-47.519c1.978-2.966,5.391-4.659,8.941-4.434c3.558,0.221,6.729,2.32,8.323,5.508l17.236,34.472h63.819 c5.522,0,10,4.477,10,10s-4.478,10-10,10h-70c-3.788,0-7.25-2.14-8.944-5.528l-12.294-24.587l-30.441,45.662 C362.813,244.286,359.691,245.957,356.348,245.957z"/> </g> </g> </g> </g> </g> <g id="Layer_1"/> </g>
</svg>