<!DOCTYPE svg PUBLIC "-//W3C//DTD SVG 1.1//EN" "http://www.w3.org/Graphics/SVG/1.1/DTD/svg11.dtd">
<!-- Uploaded to: SVG Repo, www.svgrepo.com, Transformed by: SVG Repo Mixer Tools -->
<svg fill="#ff7300" width="800px" height="800px" viewBox="0 0 512 512" version="1.1" xml:space="preserve" xmlns="http://www.w3.org/2000/svg" xmlns:xlink="http://www.w3.org/1999/xlink" stroke="#ff7300">
<g id="SVGRepo_bgCarrier" stroke-width="0"/>
<g id="SVGRepo_tracerCarrier" stroke-linecap="round" stroke-linejoin="round"/>
<g id="SVGRepo_iconCarrier"> <g id="_x35_95_x2C__Healthcare_x2C__medical_x2C__stethoscope"> <g> <g> <g> <g> <path d="M146.347,270.956c-71.682,0-130-53.832-130-120v-110c0-5.523,4.477-10,10-10h40c5.523,0,10,4.477,10,10 s-4.477,10-10,10h-30v100c0,55.14,49.346,100,110,100s110-44.859,110-100v-100h-30c-5.523,0-10-4.477-10-10s4.477-10,10-10h40 c5.522,0,10,4.477,10,10v110C276.348,217.125,218.03,270.956,146.347,270.956z"/> </g> <g> <path d="M96.347,70.957c-1.062,0-2.129-0.169-3.162-0.513l-30-10c-4.083-1.361-6.838-5.183-6.838-9.487v-20 c0-4.304,2.754-8.125,6.838-9.487l30-10c3.048-1.017,6.401-0.506,9.009,1.375c2.607,1.879,4.153,4.898,4.153,8.112v40 c0,3.214-1.545,6.233-4.153,8.112C100.47,70.312,98.419,70.957,96.347,70.957z M76.347,43.749l10,3.333V34.831l-10,3.333 V43.749z"/> </g> <g> <path d="M196.348,70.957c-2.073,0-4.123-0.645-5.848-1.888c-2.607-1.879-4.153-4.898-4.153-8.112v-40 c0-3.214,1.545-6.233,4.153-8.112c2.608-1.88,5.961-2.391,9.009-1.375l30,10c4.083,1.361,6.838,5.183,6.838,9.487v20 c0,4.304-2.754,8.125-6.838,9.487l-30,10C198.477,70.788,197.409,70.957,196.348,70.957z M206.347,34.831v12.252l10-3.333 v-5.585L206.347,34.831z"/> </g> <g> <path d="M281.348,500.956c-81.309,0-145-70.28-145-160v-80c0-5.523,4.477-10,10-10s10,4.477,10,10v80 c0,78.505,54.907,140,125,140s125-61.495,125-140v-130c0-5.523,4.478-10,10-10s10,4.477,10,10v130 C426.348,430.676,362.656,500.956,281.348,500.956z"/> </g> <g> <path d="M416.348,220.957c-44.112,0-80-35.888-80-80s35.888-80,80-80s80,35.888,80,80S460.46,220.957,416.348,220.957z M416.348,80.957c-33.084,0-60,26.916-60,60s26.916,60,60,60s60-26.916,60-60S449.432,80.957,416.348,80.957z"/> </g> <g> <path d="M416.348,180.957c-22.056,0-40-17.944-40-40s17.944-40,40-40s40,17.944,40,40S438.403,180.957,416.348,180.957z M416.348,120.957c-11.028,0-20,8.972-20,20s8.972,20,20,20s20-8.972,20-20S427.376,120.957,416.348,120.957z"/> </g> </g> </g> </g> </g> <g id="Layer_1"/> </g>
</svg>